PathFileType	4	(X/Y/Z)	D:\datacapture\jf2lin\2017-09-14 IITTimeSync\timesync1.trc
DataRate	CameraRate	NumFrames	NumMarkers	Units	OrigDataRate	OrigDataStartFrame	OrigNumFrames
100.00	100.00	      199	3	mm	100.00	811	      3241
Frame#	Time	M1			M2			M3			
		X1	Y1	Z1	X2	Y2	Z2	X3	Y3	Z3	

811	8.100	119.00162	1161.75745	341.85892	152.02586	1198.84033	323.20673				
812	8.110	120.78107	1160.58557	336.02887	153.82605	1197.47253	316.82953				
813	8.120	122.83411	1159.95410	330.54617	156.54768	1196.34167	311.46826				
814	8.130	124.71736	1158.32141	325.45364	158.19797	1195.40649	306.17801				
815	8.140	126.70048	1157.30396	320.65692	160.48000	1193.66809	301.02097				
816	8.150	128.74670	1155.48669	315.44955	162.28362	1191.60889	295.52298				
817	8.160	130.48920	1153.03223	310.28354	164.28146	1189.56482	291.31879				
818	8.170	132.45978	1150.32898	306.42001	166.13963	1186.81714	287.29126	259.74210	1292.75256	233.09254	
819	8.180	134.40947	1147.23340	302.29956	167.55832	1184.06750	284.06726	259.85431	1288.22314	230.29179	
820	8.190	135.91718	1143.93213	299.51312	169.36131	1181.22473	280.68774	261.60342	1283.94751	228.50977	
821	8.200	137.66776	1140.58777	296.24515	171.11528	1178.20691	277.97189	261.56882	1281.39453	226.21861	
822	8.210	139.42284	1137.73438	293.72412	172.38878	1175.67957	276.27423	262.25983	1277.75391	225.69473	
823	8.220	140.17499	1135.39832	291.70193	173.03929	1174.43933	274.10571	262.45847	1276.13818	223.00362	
824	8.230	140.19516	1134.19739	289.87415	173.71437	1173.24829	271.75839				
825	8.240	139.47853	1133.48022	289.49500	173.36105	1171.79224	270.26627				
826	8.250	138.70039	1132.85889	287.51886	172.76613	1170.58813	268.98328				
827	8.260	138.08841	1132.37244	285.55438	171.64308	1168.74133	266.82266				
828	8.270	136.44408	1132.27454	283.28763	171.40546	1169.31384	263.67316				
829	8.280	134.70932	1132.40454	280.32263	170.39946	1168.31750	260.74844				
830	8.290	132.65309	1132.56140	276.55545	168.77063	1167.83887	257.98224				
831	8.300	130.93311	1131.70142	272.47244	167.68367	1166.95190	254.13435				
832	8.310	129.54306	1132.22192	268.27356	165.97211	1167.48645	249.87021				
833	8.320	127.63400	1131.21497	263.94037	164.95862	1166.00061	246.47580				
834	8.330	126.98520	1131.50464	259.46066	164.84082	1165.72778	241.96445				
835	8.340	126.18578	1131.44080	255.51590	164.33479	1166.15320	238.18159				
836	8.350	125.43736	1131.57825	251.99879	163.58783	1165.69897	234.48398				
837	8.360	125.39872	1132.36340	249.34479	163.34750	1165.99097	231.28355				
838	8.370	124.59991	1132.32764	247.57936	162.82986	1165.48303	229.71634				
839	8.380	123.97541	1132.43396	246.23389	162.61502	1165.72363	226.99358				
840	8.390	123.32300	1132.42285	244.24826	161.77701	1164.60974	225.14529				
841	8.400	123.66367	1132.02869	239.85220	161.92104	1163.11340	221.12172				
842	8.410	124.17230	1129.01086	235.13533	162.44464	1161.78687	215.03256				
843	8.420	124.50620	1125.84082	230.48747	162.58304	1158.65210	211.27083				
844	8.430	125.19611	1123.49670	225.47083	162.97043	1157.43066	206.20284				
845	8.440				163.52562	1156.89673	200.88412	263.50217	1254.65796	149.83401	
846	8.450	126.29216	1120.04980	216.24742	163.30295	1155.87524	198.00455	262.61829	1252.34949	146.20264	
847	8.460				163.02882	1155.30042	193.87187	262.01154	1252.01343	142.66472	
848	8.470	125.36651	1119.46924	207.50114	162.29628	1154.74097	190.44684	261.92279	1251.44702	138.85989	
849	8.480	124.10242	1119.83960	202.34738				262.07257	1250.51050	134.56067	
850	8.490	123.25883	1119.72827	196.50766	161.29742	1154.58936	178.50655				
851	8.500	122.69038	1119.63025	190.25871	160.62152	1154.81787	172.97920				
852	8.510	122.05862	1119.27515	183.35149	160.33614	1154.24670	167.11736				
853	8.520	121.85833	1117.93848	176.42082	159.72040	1153.13281	161.78217				
854	8.530	122.03199	1115.87292	171.14519	159.55675	1152.04126	156.90578				
855	8.540	122.60130	1113.64050	165.50807	159.38863	1150.14160	152.80794				
856	8.550	123.33871	1111.49390	160.72882	160.40028	1148.62598	148.05312				
857	8.560										
858	8.570										
859	8.580										
860	8.590										
861	8.600										
862	8.610										
863	8.620										
864	8.630										
865	8.640										
866	8.650										
867	8.660										
868	8.670										
869	8.680										
870	8.690										
871	8.700										
872	8.710										
873	8.720										
874	8.730										
875	8.740										
876	8.750										
877	8.760										
878	8.770										
879	8.780										
880	8.790										
881	8.800										
882	8.810										
883	8.820										
884	8.830										
885	8.840										
886	8.850										
887	8.860										
888	8.870										
889	8.880										
890	8.890										
891	8.900										
892	8.910										
893	8.920										
894	8.930										
895	8.940										
896	8.950										
897	8.960										
898	8.970										
899	8.980										
900	8.990										
901	9.000										
902	9.010										
903	9.020										
904	9.030										
905	9.040										
906	9.050										
907	9.060										
908	9.070										
909	9.080										
910	9.090										
911	9.100										
912	9.110										
913	9.120										
914	9.130										
915	9.140										
916	9.150										
917	9.160										
918	9.170										
919	9.180										
920	9.190										
921	9.200										
922	9.210										
923	9.220										
924	9.230										
925	9.240										
926	9.250										
927	9.260										
928	9.270										
929	9.280										
930	9.290										
931	9.300										
932	9.310										
933	9.320										
934	9.330										
935	9.340										
936	9.350										
937	9.360										
938	9.370										
939	9.380										
940	9.390										
941	9.400										
942	9.410										
943	9.420										
944	9.430										
945	9.440										
946	9.450										
947	9.460										
948	9.470										
949	9.480										
950	9.490										
951	9.500										
952	9.510										
953	9.520										
954	9.530										
955	9.540										
956	9.550										
957	9.560										
958	9.570										
959	9.580										
960	9.590										
961	9.600										
962	9.610										
963	9.620										
964	9.630										
965	9.640										
966	9.650										
967	9.660										
968	9.670										
969	9.680										
970	9.690										
971	9.700										
972	9.710										
973	9.720										
974	9.730										
975	9.740										
976	9.750										
977	9.760										
978	9.770										
979	9.780										
980	9.790										
981	9.800										
982	9.810										
983	9.820										
984	9.830										
985	9.840										
986	9.850										
987	9.860										
988	9.870										
989	9.880										
990	9.890										
991	9.900										
992	9.910										
993	9.920										
994	9.930										
995	9.940										
996	9.950										
997	9.960										
998	9.970										
999	9.980										
1000	9.990										
1001	10.000										
1002	10.010										
1003	10.020										
1004	10.030										
1005	10.040										
1006	10.050										
1007	10.060										
1008	10.070										
1009	10.080										
